<?xml version="1.0" encoding="UTF-8"?>
<!DOCTYPE svg PUBLIC "-//W3C//DTD SVG 1.1//EN" "http://www.w3.org/Graphics/SVG/1.1/DTD/svg11.dtd">
<svg xmlns="http://www.w3.org/2000/svg" version="1.1" width="569px" height="257px" style="shape-rendering:geometricPrecision; text-rendering:geometricPrecision; image-rendering:optimizeQuality; fill-rule:evenodd; clip-rule:evenodd" xmlns:xlink="http://www.w3.org/1999/xlink">
<g><path style="opacity:0.999" fill="#537ac7" d="M 85.5,52.5 C 80.518,53.0534 75.518,53.3867 70.5,53.5C 60.8475,52.845 54.8475,47.845 52.5,38.5C 52.3257,31.4648 52.6591,24.4648 53.5,17.5C 53.427,15.9731 54.0937,14.9731 55.5,14.5C 57.8333,12.8333 59.8333,10.8333 61.5,8.5C 71.4559,3.05775 81.4559,3.22441 91.5,9C 97.7277,14.3863 100.394,21.2196 99.5,29.5C 100.394,37.7804 97.7277,44.6137 91.5,50C 89.5932,51.122 87.5932,51.9553 85.5,52.5 Z M 83.5,23.5 C 84.8333,27.5 84.8333,31.5 83.5,35.5C 81.4218,40.9676 77.4218,42.9676 71.5,41.5C 68.9334,39.2933 67.2667,36.6266 66.5,33.5C 65.6406,27.4121 67.3072,22.2454 71.5,18C 77.4117,16.0392 81.4117,17.8726 83.5,23.5 Z"/></g>
<g><path style="opacity:0.997" fill="#577dc8" d="M 7.5,5.5 C 17.9122,5.07381 28.2456,5.57381 38.5,7C 44.7433,10.046 47.41,15.046 46.5,22C 46.9572,31.4483 42.6238,37.1149 33.5,39C 29.5,39.3333 25.5,39.6667 21.5,40C 22.8333,44.3333 22.8333,48.6667 21.5,53C 16.5111,53.4993 11.5111,53.6659 6.5,53.5C 6.18253,37.4225 6.51586,21.4225 7.5,5.5 Z M 28.5,18.5 C 31.3932,19.8923 32.0598,22.059 30.5,25C 27.1153,27.0738 24.1153,26.9071 21.5,24.5C 22.4614,22.7354 22.7947,20.7354 22.5,18.5C 24.8098,18.7583 26.8098,18.7583 28.5,18.5 Z"/></g>
<g><path style="opacity:0.997" fill="#577dc8" d="M 119.5,27.5 C 120.246,32.4792 120.912,32.1458 121.5,26.5C 122.924,24.4855 123.59,22.1522 123.5,19.5C 124.13,14.7783 125.463,10.2783 127.5,6C 131.833,5.33333 136.167,5.33333 140.5,6C 143.351,12.5698 145.351,19.4031 146.5,26.5C 147.088,32.1458 147.754,32.4792 148.5,27.5C 149.212,20.437 150.379,13.437 152,6.5C 156.413,5.36761 160.913,5.20095 165.5,6C 165.062,15.3574 163.396,24.5241 160.5,33.5C 159.087,36.2186 158.42,39.2186 158.5,42.5C 157.087,45.2186 156.42,48.2186 156.5,51.5C 154.429,52.8086 151.929,53.4752 149,53.5C 146.5,53.1667 144,52.8333 141.5,52.5C 139.027,44.9426 137.027,37.276 135.5,29.5C 134.5,22.8333 133.5,22.8333 132.5,29.5C 131.142,37.2656 129.309,44.9323 127,52.5C 121.928,53.4714 116.762,53.8047 111.5,53.5C 108.248,38.3249 104.915,23.1582 101.5,8C 101.645,7.22797 101.978,6.5613 102.5,6C 107.087,5.20095 111.587,5.36761 116,6.5C 117.772,13.4061 118.939,20.4061 119.5,27.5 Z"/></g>
<g><path style="opacity:0.996" fill="#6183cb" d="M 170.5,5.5 C 183.171,5.33345 195.838,5.50012 208.5,6C 209.833,10 209.833,14 208.5,18C 200.841,18.4997 193.174,18.6664 185.5,18.5C 185.5,19.5 185.5,20.5 185.5,21.5C 192.833,21.5 200.167,21.5 207.5,21.5C 207.797,25.7675 207.464,29.9341 206.5,34C 199.508,34.4996 192.508,34.6663 185.5,34.5C 185.5,36.5 185.5,38.5 185.5,40.5C 193.5,40.5 201.5,40.5 209.5,40.5C 210.424,44.7346 210.424,48.9012 209.5,53C 196.5,53.6667 183.5,53.6667 170.5,53C 169.203,37.2089 169.203,21.3756 170.5,5.5 Z"/></g>
<g><path style="opacity:0.997" fill="#547bc8" d="M 257.5,13.5 C 257.963,16.4824 258.296,19.4824 258.5,22.5C 258.103,26.5647 256.103,29.5647 252.5,31.5C 250.897,31.3118 249.563,31.8118 248.5,33C 249.094,33.4643 249.761,33.631 250.5,33.5C 252.129,34.6253 253.629,35.9586 255,37.5C 257.705,41.5765 259.872,45.9099 261.5,50.5C 256.604,52.4461 251.271,53.1128 245.5,52.5C 242.679,47.5273 239.845,42.5273 237,37.5C 235.534,35.6751 233.701,35.1751 231.5,36C 232.639,41.4162 232.806,46.9162 232,52.5C 227,53.8333 222,53.8333 217,52.5C 216.333,37.1667 216.333,21.8333 217,6.5C 226.756,5.34855 236.589,5.18188 246.5,6C 251.956,6.07043 255.622,8.57043 257.5,13.5 Z M 241.5,18.5 C 244.124,20.1978 244.124,22.0312 241.5,24C 238.183,24.4983 234.85,24.665 231.5,24.5C 231.5,23.5 231.5,22.5 231.5,21.5C 232.404,20.791 232.737,19.791 232.5,18.5C 235.5,18.5 238.5,18.5 241.5,18.5 Z"/></g>
<g><path style="opacity:0.671" fill="#a3bbe0" d="M 61.5,8.5 C 59.8333,10.8333 57.8333,12.8333 55.5,14.5C 56.5,11.5 58.5,9.5 61.5,8.5 Z"/></g>
<g><path style="opacity:0.773" fill="#acc1e2" d="M 257.5,13.5 C 258.94,14.9461 259.607,16.7794 259.5,19C 259.486,20.3847 259.152,21.5514 258.5,22.5C 258.296,19.4824 257.963,16.4824 257.5,13.5 Z"/></g>
<g><path style="opacity:0.026" fill="#e2f3f2" d="M 28.5,18.5 C 26.8098,18.7583 24.8098,18.7583 22.5,18.5C 22.7947,20.7354 22.4614,22.7354 21.5,24.5C 21.5,22.1667 21.5,19.8333 21.5,17.5C 24.0593,17.1984 26.3926,17.5318 28.5,18.5 Z"/></g>
<g><path style="opacity:0.018" fill="#e0f1f1" d="M 241.5,18.5 C 238.5,18.5 235.5,18.5 232.5,18.5C 232.737,19.791 232.404,20.791 231.5,21.5C 231.5,20.1667 231.5,18.8333 231.5,17.5C 235.042,17.1872 238.375,17.5206 241.5,18.5 Z"/></g>
<g><path style="opacity:0.8" fill="#a3bae0" d="M 123.5,19.5 C 123.59,22.1522 122.924,24.4855 121.5,26.5C 121.41,23.8478 122.076,21.5145 123.5,19.5 Z"/></g>
<g><path style="opacity:0.78" fill="#9bb4de" d="M 53.5,17.5 C 52.6591,24.4648 52.3257,31.4648 52.5,38.5C 51.6311,36.016 50.9644,33.3493 50.5,30.5C 50.9362,25.9015 51.9362,21.5681 53.5,17.5 Z"/></g>
<g><path style="opacity:0.597" fill="#afc4e3" d="M 83.5,23.5 C 86.0794,27.5303 86.0794,31.5303 83.5,35.5C 84.8333,31.5 84.8333,27.5 83.5,23.5 Z"/></g>
<g><path style="opacity:0.275" fill="#c0d3e9" d="M 135.5,29.5 C 134.778,29.0825 134.278,28.4158 134,27.5C 133.722,28.4158 133.222,29.0825 132.5,29.5C 133.5,22.8333 134.5,22.8333 135.5,29.5 Z"/></g>
<g><path style="opacity:0.588" fill="#a7bde2" d="M 121.5,26.5 C 120.912,32.1458 120.246,32.4792 119.5,27.5C 120.167,27.1667 120.833,26.8333 121.5,26.5 Z"/></g>
<g><path style="opacity:0.561" fill="#abbfe4" d="M 146.5,26.5 C 147.167,26.8333 147.833,27.1667 148.5,27.5C 147.754,32.4792 147.088,32.1458 146.5,26.5 Z"/></g>
<g><path style="opacity:0.024" fill="#d0e1ee" d="M 252.5,31.5 C 251.833,32.1667 251.167,32.8333 250.5,33.5C 249.761,33.631 249.094,33.4643 248.5,33C 249.563,31.8118 250.897,31.3118 252.5,31.5 Z"/></g>
<g><path style="opacity:0.012" fill="#c7d9eb" d="M 160.5,33.5 C 160.58,36.7814 159.913,39.7814 158.5,42.5C 158.42,39.2186 159.087,36.2186 160.5,33.5 Z"/></g>
<g><path style="opacity:0.616" fill="#adc1e3" d="M 66.5,33.5 C 67.2667,36.6266 68.9334,39.2933 71.5,41.5C 67.4273,40.413 65.7606,37.7464 66.5,33.5 Z"/></g>
<g><path style="opacity:0.018" fill="#c4d6ea" d="M 158.5,42.5 C 158.58,45.7814 157.913,48.7814 156.5,51.5C 156.42,48.2186 157.087,45.2186 158.5,42.5 Z"/></g>
<g><path style="opacity:0.016" fill="#e0f1f1" d="M 261.5,50.5 C 262.404,51.209 262.737,52.209 262.5,53.5C 256.642,53.8222 250.975,53.4889 245.5,52.5C 251.271,53.1128 256.604,52.4461 261.5,50.5 Z"/></g>
<g><path style="opacity:0.021" fill="#d2e4ed" d="M 85.5,52.5 C 80.579,54.4931 75.579,54.8264 70.5,53.5C 75.518,53.3867 80.518,53.0534 85.5,52.5 Z"/></g>
<g><path style="opacity:0.997" fill="#597ec9" d="M 387.5,120.5 C 385.983,122.462 385.316,124.795 385.5,127.5C 385.382,130.486 386.048,133.152 387.5,135.5C 392.811,139.998 398.644,140.664 405,137.5C 405.167,137.167 405.333,136.833 405.5,136.5C 402.296,135.796 399.129,135.13 396,134.5C 395.207,130.577 395.374,126.744 396.5,123C 404.08,122.187 411.58,122.353 419,123.5C 419.667,130.167 419.667,136.833 419,143.5C 406.811,153.517 393.644,155.017 379.5,148C 376.014,144.861 373.681,141.027 372.5,136.5C 372.5,130.5 372.5,124.5 372.5,118.5C 375.022,109.391 381.022,104.225 390.5,103C 398.839,101.391 406.506,102.891 413.5,107.5C 415.942,110.048 417.608,113.048 418.5,116.5C 412.301,119.149 406.301,118.982 400.5,116C 394.871,114.245 390.537,115.745 387.5,120.5 Z"/></g>
<g><path style="opacity:0.999" fill="#597ec9" d="M 533.5,129.5 C 535.833,129.5 538.167,129.5 540.5,129.5C 542.635,129.147 543.968,129.98 544.5,132C 543.764,134.139 542.764,136.139 541.5,138C 543.812,139.314 545.812,140.981 547.5,143C 545.728,146.602 543.395,149.768 540.5,152.5C 537.914,150.957 535.414,149.291 533,147.5C 523.101,153.43 512.935,153.93 502.5,149C 497.29,144.107 496.29,138.607 499.5,132.5C 501.5,131.167 503.167,129.5 504.5,127.5C 505.66,126.735 506.66,125.735 507.5,124.5C 501.022,111.122 505.189,103.789 520,102.5C 533.279,103.072 537.612,109.405 533,121.5C 531.316,123.351 529.483,125.018 527.5,126.5C 528.773,129.521 530.773,130.521 533.5,129.5 Z M 522.5,113.5 C 523.234,114.708 523.567,116.041 523.5,117.5C 519.527,121.409 517.694,120.409 518,114.5C 519.356,113.62 520.856,113.286 522.5,113.5 Z M 514.5,132.5 C 515.922,133.925 517.589,134.925 519.5,135.5C 520.625,137.129 521.959,138.629 523.5,140C 520.241,141.728 516.908,141.894 513.5,140.5C 510.842,137.47 511.175,134.803 514.5,132.5 Z"/></g>
<g><path style="opacity:0.997" fill="#5d81ca" d="M 178.5,103.5 C 191.167,103.5 203.833,103.5 216.5,103.5C 216.5,107.833 216.5,112.167 216.5,116.5C 208.5,116.5 200.5,116.5 192.5,116.5C 192.5,117.5 192.5,118.5 192.5,119.5C 199.841,119.334 207.174,119.5 214.5,120C 214.629,123.955 214.629,128.122 214.5,132.5C 207.167,132.5 199.833,132.5 192.5,132.5C 192.5,134.5 192.5,136.5 192.5,138.5C 201.004,138.033 209.337,138.533 217.5,140C 217.715,143.555 217.382,147.222 216.5,151C 203.833,151.667 191.167,151.667 178.5,151C 177.174,135.167 177.174,119.333 178.5,103.5 Z"/></g>
<g><path style="opacity:0.998" fill="#567cc8" d="M 251.5,124.5 C 251.685,126.196 252.519,127.529 254,128.5C 254.499,122.509 254.666,116.509 254.5,110.5C 254.014,108.193 254.014,106.027 254.5,104C 259.155,103.501 263.821,103.334 268.5,103.5C 269.83,119.568 269.83,135.401 268.5,151C 263.833,151.667 259.167,151.667 254.5,151C 249.107,143.701 244.107,136.201 239.5,128.5C 239.013,127.527 238.513,126.527 238,125.5C 237.5,133.827 237.334,142.16 237.5,150.5C 233.167,150.5 228.833,150.5 224.5,150.5C 223.17,135.098 223.17,119.598 224.5,104C 228.833,103.333 233.167,103.333 237.5,104C 242.557,110.631 247.224,117.464 251.5,124.5 Z"/></g>
<g><path style="opacity:0.995" fill="#567cc8" d="M 315.5,115.5 C 307.5,115.5 299.5,115.5 291.5,115.5C 291.5,117.167 291.5,118.833 291.5,120.5C 298.833,120.5 306.167,120.5 313.5,120.5C 314.833,124.167 314.833,127.833 313.5,131.5C 306.167,131.5 298.833,131.5 291.5,131.5C 291.5,134.167 291.5,136.833 291.5,139.5C 299.5,139.5 307.5,139.5 315.5,139.5C 316.483,143.298 316.817,147.298 316.5,151.5C 303.5,151.5 290.5,151.5 277.5,151.5C 276.236,135.614 276.236,119.78 277.5,104C 290.167,103.333 302.833,103.333 315.5,104C 316.423,108.112 316.423,111.946 315.5,115.5 Z"/></g>
<g><path style="opacity:0.785" fill="#a7bee0" d="M 353.5,104.5 C 343.833,104.5 334.167,104.5 324.5,104.5C 324.5,119.833 324.5,135.167 324.5,150.5C 328.833,150.5 333.167,150.5 337.5,150.5C 337.833,150.5 338.167,150.5 338.5,150.5C 336.19,151.164 333.69,151.497 331,151.5C 327.973,151.618 325.139,151.118 322.5,150C 323.374,135.252 323.374,120.418 322.5,105.5C 322.709,104.914 323.043,104.414 323.5,104C 333.675,103.175 343.675,103.342 353.5,104.5 Z"/></g>
<g><path style="opacity:0.998" fill="#4a75c5" d="M 353.5,104.5 C 363.971,105.955 367.804,111.955 365,122.5C 364.093,125.572 362.26,127.905 359.5,129.5C 357.897,129.312 356.563,129.812 355.5,131C 356.094,131.464 356.761,131.631 357.5,131.5C 362.331,135.815 365.665,141.148 367.5,147.5C 367.414,148.496 367.748,149.329 368.5,150C 363.177,150.499 357.844,150.666 352.5,150.5C 349.082,144.663 345.416,138.996 341.5,133.5C 340.432,132.566 339.099,132.232 337.5,132.5C 337.5,138.5 337.5,144.5 337.5,150.5C 333.167,150.5 328.833,150.5 324.5,150.5C 324.5,135.167 324.5,119.833 324.5,104.5C 334.167,104.5 343.833,104.5 353.5,104.5 Z M 350.5,120.5 C 349.18,121.942 347.514,122.608 345.5,122.5C 343.167,122.5 340.833,122.5 338.5,122.5C 338.5,120.5 338.5,118.5 338.5,116.5C 341.85,116.335 345.183,116.502 348.5,117C 349.823,117.816 350.489,118.983 350.5,120.5 Z"/></g>
<g><path style="opacity:0.998" fill="#5c80ca" d="M 422.5,103.5 C 427.875,103.172 433.208,103.505 438.5,104.5C 441.532,109.035 444.365,113.702 447,118.5C 449.635,113.702 452.468,109.035 455.5,104.5C 458.167,104.167 460.833,103.833 463.5,103.5C 466.691,103.378 469.691,103.878 472.5,105C 466.626,113.245 461.126,121.745 456,130.5C 455.434,137.29 455.101,143.957 455,150.5C 449.928,151.471 444.762,151.805 439.5,151.5C 439.666,144.825 439.5,138.158 439,131.5C 433.291,122.581 427.458,113.748 421.5,105C 422.056,104.617 422.389,104.117 422.5,103.5 Z"/></g>
<g><path style="opacity:0.01" fill="#deeff1" d="M 254.5,110.5 C 254.666,116.509 254.499,122.509 254,128.5C 252.519,127.529 251.685,126.196 251.5,124.5C 252.222,124.082 252.722,123.416 253,122.5C 253.176,118.312 253.676,114.312 254.5,110.5 Z"/></g>
<g><path style="opacity:0.022" fill="#cddfec" d="M 522.5,113.5 C 523.586,113.62 524.253,114.287 524.5,115.5C 524.457,116.416 524.124,117.083 523.5,117.5C 523.567,116.041 523.234,114.708 522.5,113.5 Z"/></g>
<g><path style="opacity:0.013" fill="#c5d9ea" d="M 350.5,120.5 C 350.489,118.983 349.823,117.816 348.5,117C 345.183,116.502 341.85,116.335 338.5,116.5C 338.5,118.5 338.5,120.5 338.5,122.5C 340.833,122.5 343.167,122.5 345.5,122.5C 343.052,123.473 340.385,123.806 337.5,123.5C 337.5,120.833 337.5,118.167 337.5,115.5C 341.514,115.334 345.514,115.501 349.5,116C 351.466,117.347 351.799,118.847 350.5,120.5 Z"/></g>
<g><path style="opacity:0.014" fill="#e0f1f1" d="M 315.5,115.5 C 308.018,116.492 300.352,116.825 292.5,116.5C 292.5,117.5 292.5,118.5 292.5,119.5C 299.687,119.175 306.687,119.509 313.5,120.5C 306.167,120.5 298.833,120.5 291.5,120.5C 291.5,118.833 291.5,117.167 291.5,115.5C 299.5,115.5 307.5,115.5 315.5,115.5 Z"/></g>
<g><path style="opacity:0.793" fill="#a2b9e0" d="M 372.5,118.5 C 372.5,124.5 372.5,130.5 372.5,136.5C 369.833,130.5 369.833,124.5 372.5,118.5 Z"/></g>
<g><path style="opacity:0.582" fill="#92addb" d="M 387.5,120.5 C 386.248,125.491 386.248,130.491 387.5,135.5C 386.048,133.152 385.382,130.486 385.5,127.5C 385.316,124.795 385.983,122.462 387.5,120.5 Z"/></g>
<g><path style="opacity:0.335" fill="#bfd1ea" d="M 239.5,128.5 C 238.508,135.982 238.175,143.648 238.5,151.5C 233.637,151.819 228.97,151.486 224.5,150.5C 228.833,150.5 233.167,150.5 237.5,150.5C 237.334,142.16 237.5,133.827 238,125.5C 238.513,126.527 239.013,127.527 239.5,128.5 Z"/></g>
<g><path style="opacity:0.6" fill="#aac1e2" d="M 504.5,127.5 C 503.167,129.5 501.5,131.167 499.5,132.5C 500.167,129.833 501.833,128.167 504.5,127.5 Z"/></g>
<g><path style="opacity:0.816" fill="#aac0e2" d="M 540.5,129.5 C 538.167,129.5 535.833,129.5 533.5,129.5C 533.47,128.503 533.97,127.836 535,127.5C 537.03,127.954 538.863,128.62 540.5,129.5 Z"/></g>
<g><path style="opacity:0.016" fill="#d9e7f1" d="M 359.5,129.5 C 358.833,130.167 358.167,130.833 357.5,131.5C 356.761,131.631 356.094,131.464 355.5,131C 356.563,129.812 357.897,129.312 359.5,129.5 Z"/></g>
<g><path style="opacity:0.82" fill="#a7bde1" d="M 514.5,132.5 C 516.685,131.913 518.352,132.913 519.5,135.5C 517.589,134.925 515.922,133.925 514.5,132.5 Z"/></g>
<g><path style="opacity:0.578" fill="#94afdc" d="M 341.5,133.5 C 340.5,133.5 339.5,133.5 338.5,133.5C 338.5,139.167 338.5,144.833 338.5,150.5C 338.167,150.5 337.833,150.5 337.5,150.5C 337.5,144.5 337.5,138.5 337.5,132.5C 339.099,132.232 340.432,132.566 341.5,133.5 Z"/></g>
<g><path style="opacity:0.019" fill="#e2f3f2" d="M 313.5,131.5 C 306.687,132.491 299.687,132.825 292.5,132.5C 292.5,134.5 292.5,136.5 292.5,138.5C 300.352,138.175 308.018,138.508 315.5,139.5C 307.5,139.5 299.5,139.5 291.5,139.5C 291.5,136.833 291.5,134.167 291.5,131.5C 298.833,131.5 306.167,131.5 313.5,131.5 Z"/></g>
<g><path style="opacity:0.021" fill="#ddeef0" d="M 367.5,147.5 C 369.104,148.287 369.771,149.62 369.5,151.5C 363.642,151.822 357.975,151.489 352.5,150.5C 357.844,150.666 363.177,150.499 368.5,150C 367.748,149.329 367.414,148.496 367.5,147.5 Z"/></g>
<g><path style="opacity:0.02" fill="#ecede2" d="M 32.5,200.5 C 26.4707,200.425 20.4707,200.759 14.5,201.5C 17.886,200.03 21.5527,199.363 25.5,199.5C 28.0254,199.503 30.3587,199.837 32.5,200.5 Z"/></g>
<g><path style="opacity:0.02" fill="#ecede2" d="M 544.5,200.5 C 538.471,200.425 532.471,200.759 526.5,201.5C 529.886,200.03 533.553,199.363 537.5,199.5C 540.025,199.503 542.359,199.837 544.5,200.5 Z"/></g>
<g><path style="opacity:1" fill="#ff701a" d="M 32.5,200.5 C 32.8333,200.5 33.1667,200.5 33.5,200.5C 34.7804,201.931 36.4471,202.598 38.5,202.5C 39.326,204.264 40.6593,205.598 42.5,206.5C 42.427,208.027 43.0937,209.027 44.5,209.5C 44.5,209.833 44.5,210.167 44.5,210.5C 44.5,211.5 44.5,212.5 44.5,213.5C 42.2646,213.205 40.2646,213.539 38.5,214.5C 35.4669,214.868 32.8002,214.202 30.5,212.5C 29.5,212.167 28.8333,211.5 28.5,210.5C 26.68,208.539 24.68,208.206 22.5,209.5C 22.5,210.167 22.1667,210.5 21.5,210.5C 19.2901,211.455 18.9568,212.955 20.5,215C 23.0135,216.252 25.6802,216.752 28.5,216.5C 30.2143,217.738 32.2143,218.405 34.5,218.5C 38.2725,218.884 41.2725,220.55 43.5,223.5C 43.427,225.027 44.0937,226.027 45.5,226.5C 48.4574,233.49 47.1241,239.657 41.5,245C 39.7834,246.559 37.7834,247.392 35.5,247.5C 28.5052,248.779 21.5052,248.779 14.5,247.5C 14.0269,246.094 13.0269,245.427 11.5,245.5C 11.0269,244.094 10.0269,243.427 8.5,243.5C 8.57298,241.973 7.90632,240.973 6.5,240.5C 5.83333,237.833 5.16667,235.167 4.5,232.5C 6.09903,232.768 7.43236,232.434 8.5,231.5C 11.3035,230.362 14.3035,230.195 17.5,231C 19.1248,236.454 22.7915,238.954 28.5,238.5C 30.1788,238.715 31.1788,238.048 31.5,236.5C 31.7135,234.856 31.3802,233.356 30.5,232C 27.9963,231.302 25.663,230.469 23.5,229.5C 21.3155,227.415 18.6489,226.415 15.5,226.5C 12.8021,226.155 10.8021,224.822 9.5,222.5C 9.16667,221.5 8.5,220.833 7.5,220.5C 6.27412,216.178 6.27412,211.845 7.5,207.5C 8.5,207.167 9.16667,206.5 9.5,205.5C 10.5,205.167 11.1667,204.5 11.5,203.5C 13.0269,203.573 14.0269,202.906 14.5,201.5C 20.4707,200.759 26.4707,200.425 32.5,200.5 Z"/></g>
<g><path style="opacity:1" fill="#ff711e" d="M 325.5,200.5 C 331.949,200.232 338.283,200.898 344.5,202.5C 346.914,203.911 348.581,205.911 349.5,208.5C 349.286,210.144 349.62,211.644 350.5,213C 348.292,213.191 346.292,213.691 344.5,214.5C 340.896,214.951 337.896,213.951 335.5,211.5C 332.609,210.597 329.609,210.264 326.5,210.5C 325.199,211.884 325.199,213.384 326.5,215C 330.298,216.783 334.298,217.616 338.5,217.5C 341.157,217.935 343.491,218.935 345.5,220.5C 345.973,221.906 346.973,222.573 348.5,222.5C 348.427,224.027 349.094,225.027 350.5,225.5C 352.033,227.634 352.7,230.134 352.5,233C 352.333,234.833 352.167,236.667 352,238.5C 351.623,239.942 350.79,240.942 349.5,241.5C 348.094,241.973 347.427,242.973 347.5,244.5C 346.71,245.401 345.71,246.068 344.5,246.5C 342.214,246.595 340.214,247.262 338.5,248.5C 333.5,249.833 328.5,249.833 323.5,248.5C 320.965,246.983 318.298,245.65 315.5,244.5C 314.5,244.167 313.833,243.5 313.5,242.5C 313.573,240.973 312.906,239.973 311.5,239.5C 310.89,238.609 310.557,237.609 310.5,236.5C 310.5,235.167 310.5,233.833 310.5,232.5C 313.059,232.802 315.393,232.468 317.5,231.5C 319.628,230.371 321.961,230.204 324.5,231C 325.129,233.375 326.129,235.541 327.5,237.5C 328.334,238.748 329.667,239.415 331.5,239.5C 334.393,239.931 336.393,238.931 337.5,236.5C 338.067,233.089 336.734,231.089 333.5,230.5C 331.162,228.96 328.495,228.294 325.5,228.5C 324.486,227.326 323.153,226.66 321.5,226.5C 319.847,226.34 318.514,225.674 317.5,224.5C 316.118,222.451 314.452,220.785 312.5,219.5C 311.84,218.036 311.507,216.369 311.5,214.5C 311.316,211.795 311.983,209.462 313.5,207.5C 315.5,206.167 317.167,204.5 318.5,202.5C 321.152,202.59 323.485,201.924 325.5,200.5 Z"/></g>
<g><path style="opacity:0.018" fill="#f1e9db" d="M 324.5,200.5 C 328.981,199.352 333.648,199.185 338.5,200C 340.852,200.24 342.852,201.073 344.5,202.5C 338.283,200.898 331.949,200.232 325.5,200.5C 325.167,200.5 324.833,200.5 324.5,200.5 Z"/></g>
<g><path style="opacity:1" fill="#ff711d" d="M 406.5,200.5 C 409.241,200.707 411.574,201.707 413.5,203.5C 413.738,205.404 414.738,206.738 416.5,207.5C 417.338,207.842 417.672,208.508 417.5,209.5C 417.5,210.833 417.5,212.167 417.5,213.5C 415.265,213.205 413.265,213.539 411.5,214.5C 409.239,215.328 407.072,215.661 405,215.5C 403.961,214.756 403.461,213.756 403.5,212.5C 403.167,211.5 402.5,210.833 401.5,210.5C 399.143,210.337 396.81,210.503 394.5,211C 393.748,211.671 393.414,212.504 393.5,213.5C 394.183,215.176 395.517,215.843 397.5,215.5C 398.791,215.263 399.791,215.596 400.5,216.5C 402.599,217.612 404.933,218.279 407.5,218.5C 408.959,218.433 410.292,218.766 411.5,219.5C 411.821,221.048 412.821,221.715 414.5,221.5C 415.5,221.833 416.167,222.5 416.5,223.5C 416.427,225.027 417.094,226.027 418.5,226.5C 418.517,228.565 418.85,230.565 419.5,232.5C 420.72,234.284 420.72,235.95 419.5,237.5C 418.326,238.514 417.66,239.847 417.5,241.5C 415.565,245.103 412.565,247.103 408.5,247.5C 401.51,248.714 394.51,248.714 387.5,247.5C 387.027,246.094 386.027,245.427 384.5,245.5C 383.833,244.167 382.833,243.167 381.5,242.5C 380.5,242.167 379.833,241.5 379.5,240.5C 378.908,237.873 378.575,235.206 378.5,232.5C 379.791,232.737 380.791,232.404 381.5,231.5C 384.64,230.359 387.973,230.192 391.5,231C 392.708,233.25 394.041,235.417 395.5,237.5C 397.747,238.374 400.08,238.708 402.5,238.5C 404.912,238.306 405.912,236.973 405.5,234.5C 404.328,232.461 402.662,231.128 400.5,230.5C 396.787,228.565 392.787,227.232 388.5,226.5C 387.508,226.672 386.842,226.338 386.5,225.5C 385.738,223.738 384.404,222.738 382.5,222.5C 380.03,218.905 379.03,214.905 379.5,210.5C 380.89,209.101 381.89,207.434 382.5,205.5C 389.779,201.011 397.779,199.344 406.5,200.5 Z"/></g>
<g><path style="opacity:0.035" fill="#e9f3ec" d="M 477.5,202.5 C 471.5,201.167 465.5,201.167 459.5,202.5C 462.087,201.184 465.087,200.517 468.5,200.5C 471.913,200.517 474.913,201.184 477.5,202.5 Z"/></g>
<g><path style="opacity:1" fill="#ff6e16" d="M 544.5,200.5 C 544.833,200.5 545.167,200.5 545.5,200.5C 546.78,201.931 548.447,202.598 550.5,202.5C 551.326,204.264 552.659,205.598 554.5,206.5C 554.427,208.027 555.094,209.027 556.5,209.5C 556.5,209.833 556.5,210.167 556.5,210.5C 556.5,211.5 556.5,212.5 556.5,213.5C 554.265,213.205 552.265,213.539 550.5,214.5C 548.076,214.808 545.743,214.474 543.5,213.5C 543.121,211.787 542.121,210.787 540.5,210.5C 538.167,210.5 535.833,210.5 533.5,210.5C 531.29,211.455 530.957,212.955 532.5,215C 535.014,216.252 537.68,216.752 540.5,216.5C 542.214,217.738 544.214,218.405 546.5,218.5C 550.272,218.884 553.272,220.55 555.5,223.5C 555.427,225.027 556.094,226.027 557.5,226.5C 558.11,227.391 558.443,228.391 558.5,229.5C 558.632,232.57 558.299,235.57 557.5,238.5C 557.5,238.833 557.5,239.167 557.5,239.5C 556.094,239.973 555.427,240.973 555.5,242.5C 554.421,244.543 552.754,245.876 550.5,246.5C 542.588,248.714 534.588,249.048 526.5,247.5C 526.027,246.094 525.027,245.427 523.5,245.5C 523.027,244.094 522.027,243.427 520.5,243.5C 518.778,240.004 517.445,236.337 516.5,232.5C 521.181,232.331 525.848,231.998 530.5,231.5C 532.006,237.255 535.673,239.421 541.5,238C 544.482,234.425 543.816,231.925 539.5,230.5C 536.548,228.59 533.214,227.59 529.5,227.5C 525.108,226.641 521.775,224.307 519.5,220.5C 518.756,216.881 518.423,213.215 518.5,209.5C 520.262,208.738 521.262,207.404 521.5,205.5C 523.749,204.92 525.415,203.587 526.5,201.5C 532.471,200.759 538.471,200.425 544.5,200.5 Z"/></g>
<g><path style="opacity:0.192" fill="#f8ddc6" d="M 33.5,200.5 C 35.5529,200.402 37.2196,201.069 38.5,202.5C 36.4471,202.598 34.7804,201.931 33.5,200.5 Z"/></g>
<g><path style="opacity:1" fill="#ff6b11" d="M 53.5,201.5 C 58.1667,201.5 62.8333,201.5 67.5,201.5C 67.1724,212.014 67.5058,222.347 68.5,232.5C 69.4013,233.29 70.0679,234.29 70.5,235.5C 70.6107,236.117 70.944,236.617 71.5,237C 74.1667,237.667 76.8333,237.667 79.5,237C 80.756,236.583 81.4226,235.75 81.5,234.5C 82.2216,234.082 82.7216,233.416 83,232.5C 83.4998,222.172 83.6665,211.839 83.5,201.5C 88.1667,201.5 92.8333,201.5 97.5,201.5C 98.5244,210.621 98.5244,219.954 97.5,229.5C 96.5269,231.948 96.1936,234.615 96.5,237.5C 94.3155,243.683 89.9821,247.35 83.5,248.5C 77.1308,248.653 70.7974,248.32 64.5,247.5C 64.1667,247.5 63.8333,247.5 63.5,247.5C 63.0269,246.094 62.0269,245.427 60.5,245.5C 58.086,244.089 56.4194,242.089 55.5,239.5C 55.1077,237.821 54.6077,236.154 54,234.5C 53.5002,224.506 53.3335,214.506 53.5,204.5C 52.8843,203.202 52.8843,202.202 53.5,201.5 Z"/></g>
<g><path style="opacity:0.37" fill="#fbcfb0" d="M 53.5,201.5 C 58.3054,200.513 63.3054,200.179 68.5,200.5C 68.5,211.167 68.5,221.833 68.5,232.5C 67.5058,222.347 67.1724,212.014 67.5,201.5C 62.8333,201.5 58.1667,201.5 53.5,201.5 Z"/></g>
<g><path style="opacity:0.384" fill="#fad2b3" d="M 97.5,201.5 C 92.8333,201.5 88.1667,201.5 83.5,201.5C 83.6665,211.839 83.4998,222.172 83,232.5C 82.7216,233.416 82.2216,234.082 81.5,234.5C 82.7535,223.617 82.7535,212.784 81.5,202C 84.1395,200.882 86.9728,200.382 90,200.5C 92.6903,200.503 95.1903,200.836 97.5,201.5 Z"/></g>
<g><path style="opacity:1" fill="#ff7526" d="M 106.5,200.5 C 116.172,200.334 125.839,200.5 135.5,201C 141.41,202.579 144.91,206.412 146,212.5C 147.141,229.525 139.308,236.525 122.5,233.5C 121.809,238.383 121.143,243.216 120.5,248C 115.581,248.802 110.748,248.635 106,247.5C 105.38,231.605 105.547,215.938 106.5,200.5 Z M 130.5,215.5 C 130.714,217.144 130.38,218.644 129.5,220C 126.986,221.252 124.32,221.752 121.5,221.5C 121.5,218.833 121.5,216.167 121.5,213.5C 124.754,213.207 127.754,213.874 130.5,215.5 Z"/></g>
<g><path style="opacity:0.027" fill="#e5f7f2" d="M 152.5,201.5 C 152.17,217.009 152.504,232.342 153.5,247.5C 157.833,247.5 162.167,247.5 166.5,247.5C 166.833,247.5 167.167,247.5 167.5,247.5C 162.36,248.488 157.026,248.821 151.5,248.5C 151.17,232.658 151.504,216.991 152.5,201.5 Z"/></g>
<g><path style="opacity:0.885" fill="#ffa66b" d="M 182.5,201.5 C 172.833,201.5 163.167,201.5 153.5,201.5C 153.5,216.833 153.5,232.167 153.5,247.5C 152.504,232.342 152.17,217.009 152.5,201.5C 162.5,200.167 172.5,200.167 182.5,201.5 Z"/></g>
<g><path style="opacity:1" fill="#ff6809" d="M 182.5,201.5 C 185.198,201.845 187.198,203.178 188.5,205.5C 188.427,207.027 189.094,208.027 190.5,208.5C 191.833,214.5 191.833,220.5 190.5,226.5C 189.5,226.833 188.833,227.5 188.5,228.5C 187.5,228.833 186.833,229.5 186.5,230.5C 186.027,231.906 185.027,232.573 183.5,232.5C 178.87,233.229 174.203,233.563 169.5,233.5C 169.167,233.5 168.833,233.5 168.5,233.5C 166.564,237.715 165.897,242.381 166.5,247.5C 162.167,247.5 157.833,247.5 153.5,247.5C 153.5,232.167 153.5,216.833 153.5,201.5C 163.167,201.5 172.833,201.5 182.5,201.5 Z M 168.5,212.5 C 171.067,213.475 173.733,214.142 176.5,214.5C 176.55,220.342 173.55,222.675 167.5,221.5C 167.339,218.606 167.672,215.606 168.5,212.5 Z"/></g>
<g><path style="opacity:0.377" fill="#f6dbc3" d="M 213.5,201.5 C 208.833,201.5 204.167,201.5 199.5,201.5C 199.5,216.833 199.5,232.167 199.5,247.5C 211.5,247.5 223.5,247.5 235.5,247.5C 223.098,248.83 210.598,248.83 198,247.5C 198.761,232.292 198.594,217.125 197.5,202C 200.139,200.882 202.973,200.382 206,200.5C 208.69,200.503 211.19,200.836 213.5,201.5 Z"/></g>
<g><path style="opacity:1" fill="#ff690a" d="M 213.5,201.5 C 213.669,211.971 213.669,222.637 213.5,233.5C 213.5,234.5 213.5,235.5 213.5,236.5C 220.833,236.5 228.167,236.5 235.5,236.5C 236.833,240.167 236.833,243.833 235.5,247.5C 223.5,247.5 211.5,247.5 199.5,247.5C 199.5,232.167 199.5,216.833 199.5,201.5C 204.167,201.5 208.833,201.5 213.5,201.5 Z"/></g>
<g><path style="opacity:1" fill="#ff7321" d="M 242.5,201.5 C 247.167,201.5 251.833,201.5 256.5,201.5C 256.5,216.833 256.5,232.167 256.5,247.5C 251.766,248.824 246.933,248.824 242,247.5C 241.227,231.778 241.393,216.445 242.5,201.5 Z"/></g>
<g><path style="opacity:0.362" fill="#fcceac" d="M 242.5,201.5 C 247.305,200.513 252.305,200.179 257.5,200.5C 257.83,216.342 257.496,232.009 256.5,247.5C 256.5,232.167 256.5,216.833 256.5,201.5C 251.833,201.5 247.167,201.5 242.5,201.5 Z"/></g>
<g><path style="opacity:0.877" fill="#febd90" d="M 266.5,201.5 C 266.833,201.5 267.167,201.5 267.5,201.5C 267.5,216.833 267.5,232.167 267.5,247.5C 280.167,247.5 292.833,247.5 305.5,247.5C 292.431,248.83 279.265,248.83 266,247.5C 265.172,231.994 265.339,216.661 266.5,201.5 Z"/></g>
<g><path style="opacity:1" fill="#ff6a0d" d="M 267.5,201.5 C 279.833,201.5 292.167,201.5 304.5,201.5C 304.5,205.167 304.5,208.833 304.5,212.5C 297.265,213.811 289.932,213.811 282.5,212.5C 280.744,213.552 280.077,215.219 280.5,217.5C 287.833,217.5 295.167,217.5 302.5,217.5C 302.5,221.167 302.5,224.833 302.5,228.5C 296.167,228.5 289.833,228.5 283.5,228.5C 283.167,228.5 282.833,228.5 282.5,228.5C 280.631,230.635 279.964,233.302 280.5,236.5C 288.833,236.5 297.167,236.5 305.5,236.5C 306.833,240.167 306.833,243.833 305.5,247.5C 292.833,247.5 280.167,247.5 267.5,247.5C 267.5,232.167 267.5,216.833 267.5,201.5 Z"/></g>
<g><path style="opacity:0.37" fill="#f7dac1" d="M 266.5,201.5 C 279.323,200.505 292.323,200.171 305.5,200.5C 305.817,204.702 305.483,208.702 304.5,212.5C 304.5,208.833 304.5,205.167 304.5,201.5C 292.167,201.5 279.833,201.5 267.5,201.5C 267.167,201.5 266.833,201.5 266.5,201.5 Z"/></g>
<g><path style="opacity:0.922" fill="#ffb686" d="M 324.5,200.5 C 324.833,200.5 325.167,200.5 325.5,200.5C 323.485,201.924 321.152,202.59 318.5,202.5C 320.102,200.926 322.102,200.259 324.5,200.5 Z"/></g>
<g><path style="opacity:1" fill="#ff6a0d" d="M 477.5,202.5 C 478.11,203.391 478.443,204.391 478.5,205.5C 478.12,207.698 478.787,209.365 480.5,210.5C 482.559,215.01 484.226,219.677 485.5,224.5C 485.12,226.698 485.787,228.365 487.5,229.5C 487.5,229.833 487.5,230.167 487.5,230.5C 487.166,233.491 488.166,235.824 490.5,237.5C 490.5,237.833 490.5,238.167 490.5,238.5C 490.166,241.491 491.166,243.824 493.5,245.5C 488.944,247.442 483.944,248.108 478.5,247.5C 478.244,245.063 477.577,242.729 476.5,240.5C 471.014,239.185 465.68,239.185 460.5,240.5C 459.076,242.515 458.41,244.848 458.5,247.5C 453.833,247.5 449.167,247.5 444.5,247.5C 444.5,246.167 444.5,244.833 444.5,243.5C 444.971,241.421 445.637,239.421 446.5,237.5C 448.213,236.365 448.88,234.698 448.5,232.5C 448.971,230.421 449.637,228.421 450.5,226.5C 452.834,224.824 453.834,222.491 453.5,219.5C 453.5,219.167 453.5,218.833 453.5,218.5C 455.213,217.365 455.88,215.698 455.5,213.5C 457.213,212.365 457.88,210.698 457.5,208.5C 457.5,208.167 457.5,207.833 457.5,207.5C 459.213,206.365 459.88,204.698 459.5,202.5C 465.5,201.167 471.5,201.167 477.5,202.5 Z M 467.5,215.5 C 470.12,219.343 471.787,223.676 472.5,228.5C 469.833,228.5 467.167,228.5 464.5,228.5C 465.656,224.207 466.656,219.874 467.5,215.5 Z"/></g>
<g><path style="opacity:0.2" fill="#f8ddc6" d="M 545.5,200.5 C 547.553,200.402 549.22,201.069 550.5,202.5C 548.447,202.598 546.78,201.931 545.5,200.5 Z"/></g>
<g><path style="opacity:0.502" fill="#f6d8be" d="M 14.5,201.5 C 14.0269,202.906 13.0269,203.573 11.5,203.5C 11.9731,202.094 12.9731,201.427 14.5,201.5 Z"/></g>
<g><path style="opacity:0.384" fill="#f6dbc3" d="M 406.5,200.5 C 397.779,199.344 389.779,201.011 382.5,205.5C 384.508,202.157 387.508,200.324 391.5,200C 396.684,199.184 401.684,199.35 406.5,200.5 Z"/></g>
<g><path style="opacity:0.114" fill="#f9e6d7" d="M 11.5,203.5 C 11.1667,204.5 10.5,205.167 9.5,205.5C 9.5,204.167 10.1667,203.5 11.5,203.5 Z"/></g>
<g><path style="opacity:0.306" fill="#f9dcc4" d="M 318.5,202.5 C 317.167,204.5 315.5,206.167 313.5,207.5C 314.167,204.833 315.833,203.167 318.5,202.5 Z"/></g>
<g><path style="opacity:0.502" fill="#fec299" d="M 38.5,202.5 C 40.7727,202.957 42.106,204.29 42.5,206.5C 40.6593,205.598 39.326,204.264 38.5,202.5 Z"/></g>
<g><path style="opacity:0.024" fill="#e7f5ef" d="M 53.5,204.5 C 53.3335,214.506 53.5002,224.506 54,234.5C 54.6077,236.154 55.1077,237.821 55.5,239.5C 54.0337,238.653 53.2004,237.32 53,235.5C 52.1748,224.992 52.3415,214.658 53.5,204.5 Z"/></g>
<g><path style="opacity:0.722" fill="#fcc39a" d="M 413.5,203.5 C 415.262,204.262 416.262,205.596 416.5,207.5C 414.738,206.738 413.738,205.404 413.5,203.5 Z"/></g>
<g><path style="opacity:0.941" fill="#ffaf7b" d="M 526.5,201.5 C 525.415,203.587 523.749,204.92 521.5,205.5C 522.585,203.413 524.251,202.08 526.5,201.5 Z"/></g>
<g><path style="opacity:0.502" fill="#fec299" d="M 550.5,202.5 C 552.773,202.957 554.106,204.29 554.5,206.5C 552.659,205.598 551.326,204.264 550.5,202.5 Z"/></g>
<g><path style="opacity:0.025" fill="#edf0e6" d="M 9.5,205.5 C 9.16667,206.5 8.5,207.167 7.5,207.5C 7.5,206.167 8.16667,205.5 9.5,205.5 Z"/></g>
<g><path style="opacity:0.745" fill="#fdcaa6" d="M 459.5,202.5 C 459.88,204.698 459.213,206.365 457.5,207.5C 457.796,205.597 458.463,203.93 459.5,202.5 Z"/></g>
<g><path style="opacity:0.376" fill="#fec9a4" d="M 188.5,205.5 C 189.906,205.973 190.573,206.973 190.5,208.5C 189.094,208.027 188.427,207.027 188.5,205.5 Z"/></g>
<g><path style="opacity:0.302" fill="#f8dac1" d="M 382.5,205.5 C 381.89,207.434 380.89,209.101 379.5,210.5C 379.273,208.067 380.273,206.401 382.5,205.5 Z"/></g>
<g><path style="opacity:0.565" fill="#fcc7a1" d="M 521.5,205.5 C 521.262,207.404 520.262,208.738 518.5,209.5C 518.738,207.596 519.738,206.262 521.5,205.5 Z"/></g>
<g><path style="opacity:0.629" fill="#ffb583" d="M 22.5,209.5 C 24.68,208.206 26.68,208.539 28.5,210.5C 26.5,210.167 24.5,209.833 22.5,209.5 Z"/></g>
<g><path style="opacity:0.188" fill="#fed3b5" d="M 42.5,206.5 C 43.9063,206.973 44.573,207.973 44.5,209.5C 43.0937,209.027 42.427,208.027 42.5,206.5 Z"/></g>
<g><path style="opacity:0.882" fill="#ffbb8e" d="M 478.5,205.5 C 479.537,206.93 480.204,208.597 480.5,210.5C 478.787,209.365 478.12,207.698 478.5,205.5 Z"/></g>
<g><path style="opacity:0.2" fill="#fed3b5" d="M 554.5,206.5 C 555.906,206.973 556.573,207.973 556.5,209.5C 555.094,209.027 554.427,208.027 554.5,206.5 Z"/></g>
<g><path style="opacity:0.013" fill="#f1e5d4" d="M 7.5,207.5 C 6.27412,211.845 6.27412,216.178 7.5,220.5C 6.00268,218.71 5.33601,216.544 5.5,214C 5.33601,211.456 6.00268,209.29 7.5,207.5 Z"/></g>
<g><path style="opacity:0.025" fill="#ebf0e7" d="M 518.5,209.5 C 518.423,213.215 518.756,216.881 519.5,220.5C 518.003,218.71 517.336,216.544 517.5,214C 517.508,212.293 517.842,210.793 518.5,209.5 Z"/></g>
<g><path style="opacity:0.023" fill="#eaf2ea" d="M 379.5,210.5 C 379.03,214.905 380.03,218.905 382.5,222.5C 380.665,221.878 379.498,220.544 379,218.5C 378.199,215.633 378.366,212.966 379.5,210.5 Z"/></g>
<g><path style="opacity:0.013" fill="#e5f7f2" d="M 401.5,210.5 C 402.5,210.833 403.167,211.5 403.5,212.5C 402.167,212.5 401.5,211.833 401.5,210.5 Z"/></g>
<g><path style="opacity:0.188" fill="#fad6bb" d="M 21.5,210.5 C 20.3157,211.688 20.3157,212.855 21.5,214C 23.9269,214.902 26.2603,215.736 28.5,216.5C 25.6802,216.752 23.0135,216.252 20.5,215C 18.9568,212.955 19.2901,211.455 21.5,210.5 Z"/></g>
<g><path style="opacity:0.014" fill="#f5dec7" d="M 326.5,210.5 C 326.33,211.822 326.663,212.989 327.5,214C 331.232,215.342 334.899,216.509 338.5,217.5C 334.298,217.616 330.298,216.783 326.5,215C 325.199,213.384 325.199,211.884 326.5,210.5 Z"/></g>
<g><path style="opacity:0.949" fill="#ffbb8e" d="M 457.5,208.5 C 457.88,210.698 457.213,212.365 455.5,213.5C 455.402,211.447 456.069,209.78 457.5,208.5 Z"/></g>
<g><path style="opacity:0.2" fill="#f9d7bd" d="M 533.5,210.5 C 532.316,211.688 532.316,212.855 533.5,214C 536.004,214.698 538.337,215.531 540.5,216.5C 537.68,216.752 535.014,216.252 532.5,215C 530.957,212.955 531.29,211.455 533.5,210.5 Z"/></g>
<g><path style="opacity:0.617" fill="#feb07b" d="M 168.5,212.5 C 167.672,215.606 167.339,218.606 167.5,221.5C 167.5,221.833 167.5,222.167 167.5,222.5C 166.84,221.036 166.507,219.369 166.5,217.5C 166.556,215.36 167.223,213.694 168.5,212.5 Z"/></g>
<g><path style="opacity:0.051" fill="#fdcfaf" d="M 44.5,210.5 C 45.4345,211.568 45.7678,212.901 45.5,214.5C 43.002,215.082 40.6687,215.082 38.5,214.5C 40.2646,213.539 42.2646,213.205 44.5,213.5C 44.5,212.5 44.5,211.5 44.5,210.5 Z"/></g>
<g><path style="opacity:0.38" fill="#fdc39a" d="M 349.5,208.5 C 350.738,210.214 351.405,212.214 351.5,214.5C 349.118,215.546 346.785,215.546 344.5,214.5C 346.292,213.691 348.292,213.191 350.5,213C 349.62,211.644 349.286,210.144 349.5,208.5 Z"/></g>
<g><path style="opacity:0.192" fill="#fdc8a3" d="M 417.5,209.5 C 418.339,210.641 419.006,211.974 419.5,213.5C 416.914,214.48 414.247,214.813 411.5,214.5C 413.265,213.539 415.265,213.205 417.5,213.5C 417.5,212.167 417.5,210.833 417.5,209.5 Z"/></g>
<g><path style="opacity:0.616" fill="#fdc69f" d="M 556.5,210.5 C 557.782,211.708 557.782,213.042 556.5,214.5C 554.518,215.623 552.518,215.623 550.5,214.5C 552.265,213.539 554.265,213.205 556.5,213.5C 556.5,212.5 556.5,211.5 556.5,210.5 Z"/></g>
<g><path style="opacity:0.011" fill="#eceee4" d="M 30.5,212.5 C 32.8002,214.202 35.4669,214.868 38.5,214.5C 36.0336,215.634 33.367,215.801 30.5,215C 29.4019,214.23 29.4019,213.397 30.5,212.5 Z"/></g>
<g><path style="opacity:0.376" fill="#f8d7bc" d="M 190.5,208.5 C 194.5,214.5 194.5,220.5 190.5,226.5C 191.833,220.5 191.833,214.5 190.5,208.5 Z"/></g>
<g><path style="opacity:0.009" fill="#f0e7d7" d="M 335.5,211.5 C 337.896,213.951 340.896,214.951 344.5,214.5C 342.034,215.634 339.367,215.801 336.5,215C 335.663,213.989 335.33,212.822 335.5,211.5 Z"/></g>
<g><path style="opacity:0.02" fill="#f6ddc7" d="M 393.5,213.5 C 394.995,213.989 396.329,214.655 397.5,215.5C 395.517,215.843 394.183,215.176 393.5,213.5 Z"/></g>
<g><path style="opacity:0.011" fill="#eceee3" d="M 540.5,210.5 C 542.121,210.787 543.121,211.787 543.5,213.5C 545.743,214.474 548.076,214.808 550.5,214.5C 545.821,216.498 542.488,215.165 540.5,210.5 Z"/></g>
<g><path style="opacity:0.013" fill="#efe9dc" d="M 176.5,214.5 C 177.811,216.56 177.811,218.726 176.5,221C 173.649,222.289 170.649,222.789 167.5,222.5C 167.5,222.167 167.5,221.833 167.5,221.5C 173.55,222.675 176.55,220.342 176.5,214.5 Z"/></g>
<g><path style="opacity:0.031" fill="#f1e7d9" d="M 28.5,216.5 C 30.8984,216.259 32.8984,216.926 34.5,218.5C 32.2143,218.405 30.2143,217.738 28.5,216.5 Z"/></g>
<g><path style="opacity:0.034" fill="#edeadd" d="M 282.5,212.5 C 281.952,213.688 281.619,214.855 281.5,216C 289.011,216.171 296.345,216.671 303.5,217.5C 303.167,217.5 302.833,217.5 302.5,217.5C 295.167,217.5 287.833,217.5 280.5,217.5C 280.077,215.219 280.744,213.552 282.5,212.5 Z"/></g>
<g><path style="opacity:0.031" fill="#f3e1ce" d="M 400.5,216.5 C 402.527,216.338 404.527,216.505 406.5,217C 407.056,217.383 407.389,217.883 407.5,218.5C 404.933,218.279 402.599,217.612 400.5,216.5 Z"/></g>
<g><path style="opacity:0.804" fill="#fccaa6" d="M 455.5,213.5 C 455.88,215.698 455.213,217.365 453.5,218.5C 453.402,216.447 454.069,214.78 455.5,213.5 Z"/></g>
<g><path style="opacity:0.038" fill="#f1e7d9" d="M 540.5,216.5 C 542.898,216.259 544.898,216.926 546.5,218.5C 544.214,218.405 542.214,217.738 540.5,216.5 Z"/></g>
<g><path style="opacity:0.619" fill="#fac9a5" d="M 302.5,217.5 C 302.833,217.5 303.167,217.5 303.5,217.5C 303.719,221.484 303.719,225.318 303.5,229C 296.654,229.821 289.987,229.654 283.5,228.5C 289.833,228.5 296.167,228.5 302.5,228.5C 302.5,224.833 302.5,221.167 302.5,217.5 Z"/></g>
<g><path style="opacity:0.494" fill="#f6dbc3" d="M 130.5,215.5 C 131.807,217.223 131.807,219.057 130.5,221C 127.312,222.316 123.978,222.816 120.5,222.5C 120.5,219.167 120.5,215.833 120.5,212.5C 123.187,212.336 125.854,212.503 128.5,213C 129.756,213.417 130.423,214.25 130.5,215.5 Z M 130.5,215.5 C 127.754,213.874 124.754,213.207 121.5,213.5C 121.5,216.167 121.5,218.833 121.5,221.5C 124.32,221.752 126.986,221.252 129.5,220C 130.38,218.644 130.714,217.144 130.5,215.5 Z"/></g>
<g><path style="opacity:0.004" fill="#f2e8d9" d="M 345.5,220.5 C 347.027,220.427 348.027,221.094 348.5,222.5C 346.973,222.573 345.973,221.906 345.5,220.5 Z"/></g>
<g><path style="opacity:0.941" fill="#ffb889" d="M 411.5,219.5 C 412.71,219.932 413.71,220.599 414.5,221.5C 412.821,221.715 411.821,221.048 411.5,219.5 Z"/></g>
<g><path style="opacity:0.004" fill="#f4e9dc" d="M 7.5,220.5 C 8.5,220.833 9.16667,221.5 9.5,222.5C 8.16667,222.5 7.5,221.833 7.5,220.5 Z"/></g>
<g><path style="opacity:0.506" fill="#fbc9a6" d="M 312.5,219.5 C 314.452,220.785 316.118,222.451 317.5,224.5C 314.856,223.856 313.189,222.189 312.5,219.5 Z"/></g>
<g><path style="opacity:0.871" fill="#ffb98a" d="M 382.5,222.5 C 384.404,222.738 385.738,223.738 386.5,225.5C 384.596,225.262 383.262,224.262 382.5,222.5 Z"/></g>
<g><path style="opacity:0.376" fill="#fbcdac" d="M 348.5,222.5 C 349.906,222.973 350.573,223.973 350.5,225.5C 349.094,225.027 348.427,224.027 348.5,222.5 Z"/></g>
<g><path style="opacity:0.753" fill="#ffbe93" d="M 453.5,219.5 C 453.834,222.491 452.834,224.824 450.5,226.5C 450.935,223.843 451.935,221.509 453.5,219.5 Z"/></g>
<g><path style="opacity:0.208" fill="#fad7bd" d="M 43.5,223.5 C 44.9063,223.973 45.573,224.973 45.5,226.5C 44.0937,226.027 43.427,225.027 43.5,223.5 Z"/></g>
<g><path style="opacity:0.502" fill="#ffbe92" d="M 416.5,223.5 C 417.906,223.973 418.573,224.973 418.5,226.5C 417.094,226.027 416.427,225.027 416.5,223.5 Z"/></g>
<g><path style="opacity:0.204" fill="#fad7bd" d="M 555.5,223.5 C 556.906,223.973 557.573,224.973 557.5,226.5C 556.094,226.027 555.427,225.027 555.5,223.5 Z"/></g>
<g><path style="opacity:0.022" fill="#eeece1" d="M 190.5,226.5 C 190.5,227.833 189.833,228.5 188.5,228.5C 188.833,227.5 189.5,226.833 190.5,226.5 Z"/></g>
<g><path style="opacity:0.69" fill="#fdc59f" d="M 15.5,226.5 C 18.6489,226.415 21.3155,227.415 23.5,229.5C 20.3511,229.585 17.6845,228.585 15.5,226.5 Z"/></g>
<g><path style="opacity:0.01" fill="#f2e7d8" d="M 321.5,226.5 C 323.153,226.66 324.486,227.326 325.5,228.5C 323.62,228.771 322.287,228.104 321.5,226.5 Z"/></g>
<g><path style="opacity:0.576" fill="#fad0b1" d="M 388.5,226.5 C 392.787,227.232 396.787,228.565 400.5,230.5C 396.085,230.139 392.085,228.806 388.5,226.5 Z"/></g>
<g><path style="opacity:0.886" fill="#ffbc90" d="M 485.5,224.5 C 486.537,225.93 487.204,227.597 487.5,229.5C 485.787,228.365 485.12,226.698 485.5,224.5 Z"/></g>
<g><path style="opacity:0.671" fill="#f9d5b8" d="M 529.5,227.5 C 533.214,227.59 536.548,228.59 539.5,230.5C 535.838,230.277 532.505,229.277 529.5,227.5 Z"/></g>
<g><path style="opacity:0.625" fill="#facba8" d="M 282.5,228.5 C 281.631,230.717 281.298,233.05 281.5,235.5C 289.684,235.174 297.684,235.508 305.5,236.5C 297.167,236.5 288.833,236.5 280.5,236.5C 279.964,233.302 280.631,230.635 282.5,228.5 Z"/></g>
<g><path style="opacity:0.847" fill="#ffb482" d="M 97.5,229.5 C 97.6107,230.117 97.944,230.617 98.5,231C 97.8828,233.277 97.2161,235.444 96.5,237.5C 96.1936,234.615 96.5269,231.948 97.5,229.5 Z"/></g>
<g><path style="opacity:0.012" fill="#f6d9bf" d="M 188.5,228.5 C 188.5,229.833 187.833,230.5 186.5,230.5C 186.833,229.5 187.5,228.833 188.5,228.5 Z"/></g>
<g><path style="opacity:0.011" fill="#f0e9db" d="M 325.5,228.5 C 328.495,228.294 331.162,228.96 333.5,230.5C 330.505,230.706 327.838,230.04 325.5,228.5 Z"/></g>
<g><path style="opacity:0.894" fill="#ffb98a" d="M 418.5,226.5 C 420.151,228.402 420.484,230.402 419.5,232.5C 418.85,230.565 418.517,228.565 418.5,226.5 Z"/></g>
<g><path style="opacity:0.006" fill="#e9f3ec" d="M 558.5,229.5 C 559.634,231.966 559.801,234.633 559,237.5C 558.617,238.056 558.117,238.389 557.5,238.5C 558.299,235.57 558.632,232.57 558.5,229.5 Z"/></g>
<g><path style="opacity:0.012" fill="#f3e4d3" d="M 8.5,231.5 C 7.43236,232.434 6.09903,232.768 4.5,232.5C 5.16667,235.167 5.83333,237.833 6.5,240.5C 3.96945,238.034 3.13611,235.034 4,231.5C 5.29881,231.034 6.79881,231.034 8.5,231.5 Z"/></g>
<g><path style="opacity:0.387" fill="#f9d2b4" d="M 317.5,231.5 C 315.393,232.468 313.059,232.802 310.5,232.5C 310.5,233.833 310.5,235.167 310.5,236.5C 309.126,234.483 309.293,232.483 311,230.5C 313.223,230.895 315.389,231.228 317.5,231.5 Z"/></g>
<g><path style="opacity:0.629" fill="#fbcaa7" d="M 530.5,231.5 C 525.848,231.998 521.181,232.331 516.5,232.5C 516.369,231.624 516.702,230.957 517.5,230.5C 521.905,230.353 526.239,230.687 530.5,231.5 Z"/></g>
<g><path style="opacity:0.614" fill="#feb685" d="M 168.5,233.5 C 167.762,238.285 167.428,242.951 167.5,247.5C 167.167,247.5 166.833,247.5 166.5,247.5C 165.897,242.381 166.564,237.715 168.5,233.5 Z"/></g>
<g><path style="opacity:0.01" fill="#eaf1ea" d="M 183.5,232.5 C 181.193,234.047 178.527,234.713 175.5,234.5C 173.304,234.495 171.304,234.162 169.5,233.5C 174.203,233.563 178.87,233.229 183.5,232.5 Z"/></g>
<g><path style="opacity:0.02" fill="#e5f7f2" d="M 213.5,233.5 C 220.743,235.095 228.077,236.095 235.5,236.5C 228.167,236.5 220.833,236.5 213.5,236.5C 213.5,235.5 213.5,234.5 213.5,233.5 Z"/></g>
<g><path style="opacity:0.396" fill="#f8d9bf" d="M 381.5,231.5 C 380.791,232.404 379.791,232.737 378.5,232.5C 378.575,235.206 378.908,237.873 379.5,240.5C 378.058,238.46 377.058,236.127 376.5,233.5C 377.535,230.734 379.201,230.068 381.5,231.5 Z"/></g>
<g><path style="opacity:0.024" fill="#e5f7f2" d="M 425.5,234.5 C 430.305,233.513 435.305,233.179 440.5,233.5C 440.819,238.363 440.486,243.03 439.5,247.5C 439.5,243.167 439.5,238.833 439.5,234.5C 434.833,234.5 430.167,234.5 425.5,234.5 Z"/></g>
<g><path style="opacity:0.996" fill="#ffb686" d="M 487.5,230.5 C 489.065,232.509 490.065,234.843 490.5,237.5C 488.166,235.824 487.166,233.491 487.5,230.5 Z"/></g>
<g><path style="opacity:1" fill="#ff7b2f" d="M 425.5,234.5 C 430.167,234.5 434.833,234.5 439.5,234.5C 439.5,238.833 439.5,243.167 439.5,247.5C 435.019,248.648 430.352,248.815 425.5,248C 424.177,243.4 424.177,238.9 425.5,234.5 Z"/></g>
<g><path style="opacity:0.614" fill="#fcc096" d="M 496.5,234.5 C 496.833,234.5 497.167,234.5 497.5,234.5C 497.5,238.833 497.5,243.167 497.5,247.5C 497.167,247.5 496.833,247.5 496.5,247.5C 496.087,243.214 496.087,238.88 496.5,234.5 Z"/></g>
<g><path style="opacity:1" fill="#fe6600" d="M 497.5,234.5 C 501.833,234.5 506.167,234.5 510.5,234.5C 510.5,238.833 510.5,243.167 510.5,247.5C 506.167,247.5 501.833,247.5 497.5,247.5C 497.5,243.167 497.5,238.833 497.5,234.5 Z"/></g>
<g><path style="opacity:0.385" fill="#f4dfca" d="M 496.5,234.5 C 501.305,233.513 506.305,233.179 511.5,233.5C 511.609,238.545 511.609,243.378 511.5,248C 506.316,248.816 501.316,248.65 496.5,247.5C 496.833,247.5 497.167,247.5 497.5,247.5C 501.833,247.5 506.167,247.5 510.5,247.5C 510.5,243.167 510.5,238.833 510.5,234.5C 506.167,234.5 501.833,234.5 497.5,234.5C 497.167,234.5 496.833,234.5 496.5,234.5 Z"/></g>
<g><path style="opacity:0.522" fill="#f7d9bf" d="M 516.5,232.5 C 517.445,236.337 518.778,240.004 520.5,243.5C 519.542,243.047 518.708,242.381 518,241.5C 517.167,239 516.333,236.5 515.5,234C 515.57,233.235 515.903,232.735 516.5,232.5 Z"/></g>
<g><path style="opacity:0.808" fill="#fec69f" d="M 448.5,232.5 C 448.88,234.698 448.213,236.365 446.5,237.5C 446.796,235.597 447.463,233.93 448.5,232.5 Z"/></g>
<g><path style="opacity:0.033" fill="#fbd4b8" d="M 81.5,234.5 C 81.4226,235.75 80.756,236.583 79.5,237C 76.8333,237.667 74.1667,237.667 71.5,237C 70.944,236.617 70.6107,236.117 70.5,235.5C 74.3129,236.872 77.9796,236.538 81.5,234.5 Z"/></g>
<g><path style="opacity:0.722" fill="#facba8" d="M 31.5,236.5 C 31.1788,238.048 30.1788,238.715 28.5,238.5C 29.2905,237.599 30.2905,236.932 31.5,236.5 Z"/></g>
<g><path style="opacity:0.482" fill="#f6d6bb" d="M 405.5,234.5 C 405.912,236.973 404.912,238.306 402.5,238.5C 403.512,237.128 404.512,235.795 405.5,234.5 Z"/></g>
<g><path style="opacity:0.537" fill="#ffc49d" d="M 337.5,236.5 C 336.393,238.931 334.393,239.931 331.5,239.5C 329.667,239.415 328.334,238.748 327.5,237.5C 330.988,238.92 334.322,238.586 337.5,236.5 Z"/></g>
<g><path style="opacity:0.01" fill="#eff0e7" d="M 419.5,237.5 C 419.771,239.38 419.104,240.713 417.5,241.5C 417.66,239.847 418.326,238.514 419.5,237.5 Z"/></g>
<g><path style="opacity:0.016" fill="#edece1" d="M 311.5,239.5 C 312.906,239.973 313.573,240.973 313.5,242.5C 312.094,242.027 311.427,241.027 311.5,239.5 Z"/></g>
<g><path style="opacity:0.016" fill="#edece1" d="M 460.5,240.5 C 465.68,239.185 471.014,239.185 476.5,240.5C 477.577,242.729 478.244,245.063 478.5,247.5C 476.914,245.919 475.914,243.919 475.5,241.5C 470.544,240.506 465.544,240.173 460.5,240.5 Z"/></g>
<g><path style="opacity:0.014" fill="#edece1" d="M 557.5,239.5 C 557.573,241.027 556.906,242.027 555.5,242.5C 555.427,240.973 556.094,239.973 557.5,239.5 Z"/></g>
<g><path style="opacity:0.004" fill="#f2e8d9" d="M 6.5,240.5 C 7.90632,240.973 8.57298,241.973 8.5,243.5C 7.09368,243.027 6.42702,242.027 6.5,240.5 Z"/></g>
<g><path style="opacity:0.016" fill="#f4ddc6" d="M 349.5,241.5 C 349.573,243.027 348.906,244.027 347.5,244.5C 347.427,242.973 348.094,241.973 349.5,241.5 Z"/></g>
<g><path style="opacity:0.722" fill="#fcc096" d="M 8.5,243.5 C 10.0269,243.427 11.0269,244.094 11.5,245.5C 9.97306,245.573 8.97306,244.906 8.5,243.5 Z"/></g>
<g><path style="opacity:0.016" fill="#f6d9bf" d="M 381.5,242.5 C 382.833,243.167 383.833,244.167 384.5,245.5C 382.5,245.5 381.5,244.5 381.5,242.5 Z"/></g>
<g><path style="opacity:0.733" fill="#fec299" d="M 490.5,238.5 C 492.293,240.426 493.293,242.759 493.5,245.5C 491.166,243.824 490.166,241.491 490.5,238.5 Z"/></g>
<g><path style="opacity:0.722" fill="#fcc096" d="M 520.5,243.5 C 522.027,243.427 523.027,244.094 523.5,245.5C 521.973,245.573 520.973,244.906 520.5,243.5 Z"/></g>
<g><path style="opacity:0.38" fill="#fad2b5" d="M 315.5,244.5 C 318.298,245.65 320.965,246.983 323.5,248.5C 320.079,248.482 317.412,247.149 315.5,244.5 Z"/></g>
<g><path style="opacity:0.016" fill="#efeadd" d="M 460.5,240.5 C 460.167,243.167 459.833,245.833 459.5,248.5C 454.156,248.666 448.823,248.499 443.5,248C 443.167,247.667 442.833,247.333 442.5,247C 443.085,245.698 443.751,244.531 444.5,243.5C 444.5,244.833 444.5,246.167 444.5,247.5C 449.167,247.5 453.833,247.5 458.5,247.5C 458.41,244.848 459.076,242.515 460.5,240.5 Z"/></g>
<g><path style="opacity:0.02" fill="#e5f7f2" d="M 493.5,245.5 C 494.404,246.209 494.737,247.209 494.5,248.5C 488.974,248.821 483.64,248.488 478.5,247.5C 483.944,248.108 488.944,247.442 493.5,245.5 Z"/></g>
<g><path style="opacity:0.208" fill="#fdd1b2" d="M 11.5,245.5 C 13.0269,245.427 14.0269,246.094 14.5,247.5C 12.9731,247.573 11.9731,246.906 11.5,245.5 Z"/></g>
<g><path style="opacity:0.014" fill="#eeebdf" d="M 60.5,245.5 C 62.0269,245.427 63.0269,246.094 63.5,247.5C 61.9731,247.573 60.9731,246.906 60.5,245.5 Z"/></g>
<g><path style="opacity:0.086" fill="#fdddc7" d="M 384.5,245.5 C 386.027,245.427 387.027,246.094 387.5,247.5C 385.973,247.573 384.973,246.906 384.5,245.5 Z"/></g>
<g><path style="opacity:0.204" fill="#fdd1b2" d="M 523.5,245.5 C 525.027,245.427 526.027,246.094 526.5,247.5C 524.973,247.573 523.973,246.906 523.5,245.5 Z"/></g>
<g><path style="opacity:0.012" fill="#f3eadd" d="M 344.5,246.5 C 342.898,248.074 340.898,248.741 338.5,248.5C 340.214,247.262 342.214,246.595 344.5,246.5 Z"/></g>
<g><path style="opacity:0.015" fill="#eeeade" d="M 14.5,247.5 C 21.5052,248.779 28.5052,248.779 35.5,247.5C 35.0825,248.222 34.4158,248.722 33.5,249C 30.8333,249.167 28.1667,249.333 25.5,249.5C 21.5313,249.706 17.8646,249.039 14.5,247.5 Z"/></g>
<g><path style="opacity:0.019" fill="#eaf1e8" d="M 64.5,247.5 C 70.7974,248.32 77.1308,248.653 83.5,248.5C 81.0221,249.164 78.3555,249.497 75.5,249.5C 71.5313,249.706 67.8646,249.039 64.5,247.5 Z"/></g>
<g><path style="opacity:0.015" fill="#f0e6d6" d="M 387.5,247.5 C 394.51,248.714 401.51,248.714 408.5,247.5C 408.082,248.222 407.416,248.722 406.5,249C 403.833,249.167 401.167,249.333 398.5,249.5C 394.531,249.706 390.865,249.039 387.5,247.5 Z"/></g>
<g><path style="opacity:0.017" fill="#efe9db" d="M 550.5,246.5 C 546.808,248.933 542.641,249.933 538,249.5C 533.888,249.651 530.054,248.984 526.5,247.5C 534.588,249.048 542.588,248.714 550.5,246.5 Z"/></g>
</svg>
